<svg xmlns="http://www.w3.org/2000/svg" width="1920" height="1080"><defs><linearGradient id="r" x1="0" x2="1"><stop stop-color="#70455f"/><stop offset=".45" stop-color="#b16b77"/><stop offset="1" stop-color="#62415e"/></linearGradient></defs><path fill="url(#r)" d="m1080 820 64-270 90-55 29-154 90-93 95 96 27 144 98 88 67 244z"/><g fill="#d18a88" opacity=".65"><path d="m1353 248 40 122-64 70 38 82-112 86 8-267z"/><path d="m1448 344 27 144-62 41 43 62-92 74 3-143z"/></g><g fill="#493d5d"><path d="m1150 786 83-179 71 56-41 157zm307-195 116-15 67 244-148-57z"/></g><path fill="#bda0c1" opacity=".18" d="M890 825q330-82 720 0v120H890z"/></svg>
