<svg xmlns="http://www.w3.org/2000/svg" width="1920" height="1080"><path fill="#252535" d="M0 870q210-145 425-35 190 85 360 75 190-5 335 50 180-110 400-42 190-115 400-20v182H0z"/><path fill="#171d29" d="M0 980q260-85 480 12 190-55 380 22 250-100 470 9 280-125 590-54v111H0z"/><g fill="#4d4b36"><path d="m0 845 100-100-45 123 115-105-68 150 125-95-81 150H0zm260 26 42-110 9 100 58-90-22 115 92-72-70 120zm1250 50 28-110 20 95 52-105-18 127 83-73-48 118z"/></g><g fill="#493447"><path d="m175 918 78-54 65 49-42 65-113-5zm1100 44 79-70 84 52-39 72z"/></g></svg>
